<svg xmlns="http://www.w3.org/2000/svg" xmlns:xlink="http://www.w3.org/1999/xlink" x="0px" y="0px" viewBox="0 0 50 50" style="enable-background:new 0 0 50 50;" xml:space="preserve"><style type="text/css">	.st0{fill:none;stroke:#BB9D7B;stroke-width:2;stroke-linecap:round;stroke-linejoin:round;}</style><path class="st0" d="M25,1.5l3.7,13.9c0.5,1.7,0.7,2.5,1.1,3.2c0.4,0.6,0.9,1.1,1.5,1.5c0.7,0.4,1.5,0.7,3.2,1.1L48.5,25l-13.9,3.7 c-1.7,0.5-2.5,0.7-3.2,1.1c-0.6,0.4-1.1,0.9-1.5,1.5c-0.4,0.7-0.7,1.5-1.1,3.2L25,48.5l-3.7-13.9c-0.5-1.7-0.7-2.5-1.1-3.2 c-0.4-0.6-0.9-1.1-1.5-1.5c-0.7-0.4-1.5-0.7-3.2-1.1L1.5,25l13.9-3.7c1.7-0.5,2.5-0.7,3.2-1.1c0.6-0.4,1.1-0.9,1.5-1.5 c0.4-0.7,0.7-1.5,1.1-3.2L25,1.5z"></path></svg>