<svg xmlns="http://www.w3.org/2000/svg" fill="none" viewBox="0 0 64 64">
  <defs>
    <linearGradient id="grad2" x1="0" y1="0" x2="64" y2="64" gradientUnits="userSpaceOnUse">
      <stop offset="0%"  stop-color="#22c55e"/> <!-- green-500   -->
      <stop offset="100%" stop-color="#10b981"/> <!-- emerald-500 -->
    </linearGradient>
  </defs>
  <path d="M32 4C17 4 4 17 4 32s13 28 28 28 28-13 28-28S47 4 32 4zm0 44c-9 0-16-7-16-16 0-9 7-16 16-16 6 0 11 3 14 7-3 4-8 7-14 7-4 0-8-2-11-5-3 3-5 7-5 11 0 9 7 16 16 16z" fill="url(#grad2)"/>
  <path d="M32 20v10l6-6" stroke="url(#grad2)" stroke-width="3" stroke-linecap="round" stroke-linejoin="round"/>
</svg>